# xmcd CD database file
#
# Track frame offsets:
#	150
#	39887
#	57030
#	76235
#	97110
#	143925
#	160422
#
# Disc length: 2615 seconds
#
# Revision: 0
# Processed by: cddbd v1.4PL0 Copyright (c) Steve Scherf et al.
# Submitted via: CDex 1.50beta9
#
DISCID=520a3507
DTITLE=SunWind - The Sun Below
DYEAR=2002
DGENRE=Jazz
TTITLE0=Mister Yang
TTITLE1=Under The Trees
TTITLE2=Two Ladies
TTITLE3=Happy Tune
TTITLE4=Sephardis
TTITLE5=The Sun Below - Rising
TTITLE6=The Sun Below
EXTD=YEAR: 2002
EXTT0=
EXTT1=
EXTT2=
EXTT3=
EXTT4=
EXTT5=
EXTT6=
PLAYORDER=
